{"title":"American.Sniper.2014.BRRip.480p.x264.AAC-VYTO [P2PDL]","uid":12212071,"size":507191580,"categoryP":"video","categoryS":"movies","magnet":"?xt=urn:btih:0c6333edb623f9244950da86233c0921c1e15a20&amp;dn=American.Sniper.2014.BRRip.480p.x264.AAC-VYTO+%5BP2PDL%5D&amp;tr=udp%3A%2F%2Ftracker.openbittorrent.com%3A80&amp;tr=udp%3A%2F%2Fopen.demonii.com%3A1337&amp;tr=udp%3A%2F%2Ftracker.coppersurfer.tk%3A6969&amp;tr=udp%3A%2F%2Fexodus.desync.com%3A6969","seeders":7,"leechers":3,"uploader":"ValidusVyto","files":7,"time":1439120352,"description":"____    ____ ____    ____ .___________.  ______   \n     /   /      /   / |           | /  __    \n    /   /      /   /  `---|  |----`|  |  |  | \n        /     _    _/       |  |     |  |  |  | \n       /        |  |         |  |     |  `--'  | \n    __/         |__|         |__|      ______/  \n                                                  \nPresenting Small Encodes with quality for years!\n                                                                                                   \n                                                                                                   \n\nAmerican.Sniper.2014.BRRip.480p.x264.AAC-VYTO\n\n\nGenre: Action, Biography, Drama &lt;a href=&quot;\nhttp://www.imdb.com/title/tt2179136/&quot; rel=&quot;nofollow&quot; target=&quot;_NEW&quot;&gt;\nhttp://www.imdb.com/title/tt2179136/&lt;/a&gt;\n\n\nGeneral\nFormat                         : MPEG-4\nFile size                      : 476 MiB\nDuration                       : 2h 12mn\nOverall bit rate               : 501 Kbps\n\nVideo\nFormat                         : AVC\nBit rate                       : 467 Kbps\nWidth                          : 720 pixels\nHeight                         : 304 pixels\nDisplay aspect ratio           : 2.35:1\nFrame rate mode                : Constant\nFrame rate                     : 23.976 fps\nBit depth                      : 8 bits\nStream size                    : 443 MiB (93%)\nWriting library                : x264 core 146 r2538\n\nAudio\nFormat                         : AAC\nDuration                       : 2h 12mn\nBit rate mode                  : Variable\nBit rate                       : 31.2 Kbps\nChannel(s)                     : 2 channels\nChannel positions              : Front: L R \nSampling rate                  : 48.0 KHz\nStream size                    : 29.6 MiB (6%)\nLanguage                       : English\n\nSubtitle                       : Yes\nSource                     \t   : 1080p.BluRay.x264-SPARKS\t\t\n\nScreenshots:\n &lt;a href=&quot;\nhttp://ititli.com/eZ&quot; rel=&quot;nofollow&quot; target=&quot;_NEW&quot;&gt;\nhttp://ititli.com/eZ&lt;/a&gt; &lt;a href=&quot;\nhttp://ititli.com/ec&quot; rel=&quot;nofollow&quot; target=&quot;_NEW&quot;&gt;\nhttp://ititli.com/ec&lt;/a&gt; &lt;a href=&quot;\nhttp://ititli.com/ei&quot; rel=&quot;nofollow&quot; target=&quot;_NEW&quot;&gt;\nhttp://ititli.com/ei&lt;/a&gt; &lt;a href=&quot;\nhttp://ititli.com/ep&quot; rel=&quot;nofollow&quot; target=&quot;_NEW&quot;&gt;\nhttp://ititli.com/ep&lt;/a&gt; &lt;a href=&quot;\nhttp://ititli.com/eD&quot; rel=&quot;nofollow&quot; target=&quot;_NEW&quot;&gt;\nhttp://ititli.com/eD&lt;/a&gt; &lt;a href=&quot;\nhttp://ititli.com/ea&quot; rel=&quot;nofollow&quot; target=&quot;_NEW&quot;&gt;\nhttp://ititli.com/ea&lt;/a&gt; &lt;a href=&quot;\nhttp://ititli.com/eb&quot; rel=&quot;nofollow&quot; target=&quot;_NEW&quot;&gt;\nhttp://ititli.com/eb&lt;/a&gt; &lt;a href=&quot;\nhttp://ititli.com/ez&quot; rel=&quot;nofollow&quot; target=&quot;_NEW&quot;&gt;\nhttp://ititli.com/ez&lt;/a&gt; &lt;a href=&quot;\nhttp://ititli.com/eI&quot; rel=&quot;nofollow&quot; target=&quot;_NEW&quot;&gt;\nhttp://ititli.com/eI&lt;/a&gt; &lt;a href=&quot;\nhttp://ititli.com/eO&quot; rel=&quot;nofollow&quot; target=&quot;_NEW&quot;&gt;\nhttp://ititli.com/eO&lt;/a&gt; &lt;a href=&quot;\nhttp://ititli.com/j9&quot; rel=&quot;nofollow&quot; target=&quot;_NEW&quot;&gt;\nhttp://ititli.com/j9&lt;/a&gt; &lt;a href=&quot;\nhttp://ititli.com/jX&quot; rel=&quot;nofollow&quot; target=&quot;_NEW&quot;&gt;\nhttp://ititli.com/jX&lt;/a&gt;\n\n----------------------------------------------------------------------------------------------------\n\n\nEncoder Notes: Looking For Early Access To Anything You Can Provide DVDScr, R5, DVDR, BluRay, Direct\nAudio, Music Releases and Seedboxes. If You Got anything to offer please contact us.\n\nSupport us by donating BC - 1FgwdzPsd1y25Gea8wP1qni35uGCtmkRCD","torrent":{"xt":"urn:btih:0c6333edb623f9244950da86233c0921c1e15a20","amp;dn":"American.Sniper.2014.BRRip.480p.x264.AAC-VYTO+%5BP2PDL%5D","amp;tr":["udp%3A%2F%2Ftracker.openbittorrent.com%3A80","udp%3A%2F%2Fopen.demonii.com%3A1337","udp%3A%2F%2Ftracker.coppersurfer.tk%3A6969","udp%3A%2F%2Fexodus.desync.com%3A6969"],"infoHash":"0c6333edb623f9244950da86233c0921c1e15a20","infoHashBuffer":{"type":"Buffer","data":[12,99,51,237,182,35,249,36,73,80,218,134,35,60,9,33,193,225,90,32]},"announce":[],"urlList":[]}}